<mxfile host="65bd71144e">
    <diagram name="ページ1" id="frMR8SvpSxzmtPhyWDE2">
        <mxGraphModel dx="793" dy="2409" grid="1" gridSize="10" guides="1" tooltips="1" connect="0" arrows="1" fold="1" page="1" pageScale="1" pageWidth="827" pageHeight="1169" background="none" math="0" shadow="0">
            <root>
                <mxCell id="0"/>
                <mxCell id="1" parent="0"/>
                <mxCell id="WDazMawdFwYF5kCfvkeo-1" value="開始" style="html=1;overflow=block;blockSpacing=1;whiteSpace=wrap;rounded=1;arcSize=50;fontSize=13;fontFamily=Lucid JP;fontColor=#ffffff;spacing=3.8;strokeOpacity=0;fillOpacity=100;fillColor=#ff741d;strokeWidth=0.8;lucidId=~U465~lUrSb8;" parent="1" vertex="1">
                    <mxGeometry x="997" y="-435" width="120" height="60" as="geometry"/>
                </mxCell>
                <mxCell id="WDazMawdFwYF5kCfvkeo-2" value="/play" style="html=1;overflow=block;blockSpacing=1;whiteSpace=wrap;shape=manualInput;size=15;fontSize=16.7;fontFamily=Liberation Serif;fontColor=#3a414a;align=center;spacing=3.8;strokeColor=#fe5900;strokeOpacity=100;fillOpacity=100;rounded=1;absoluteArcSize=1;arcSize=12;fillColor=default;strokeWidth=3;lucidId=~U46HGoSjG18;" parent="1" vertex="1">
                    <mxGeometry x="996" y="-345" width="120" height="90" as="geometry"/>
                </mxCell>
                <mxCell id="WDazMawdFwYF5kCfvkeo-4" value="" style="html=1;jettySize=18;whiteSpace=wrap;fontSize=13;strokeColor=#333333;strokeOpacity=100;strokeWidth=0.8;rounded=1;arcSize=24;edgeStyle=orthogonalEdgeStyle;startArrow=none;endArrow=block;endFill=1;exitX=0.5;exitY=1;exitPerimeter=0;entryX=0.509;entryY=0.065;entryPerimeter=0;lucidId=~U46H.SjukDl;" parent="1" source="WDazMawdFwYF5kCfvkeo-1" target="WDazMawdFwYF5kCfvkeo-2" edge="1">
                    <mxGeometry width="100" height="100" relative="1" as="geometry">
                        <Array as="points"/>
                    </mxGeometry>
                </mxCell>
                <mxCell id="WDazMawdFwYF5kCfvkeo-7" value="プレイ開始済" style="html=1;overflow=block;blockSpacing=1;whiteSpace=wrap;rhombus;fontSize=16.7;fontFamily=Liberation Serif;spacing=3.8;strokeColor=#fe5900;strokeOpacity=100;rounded=1;absoluteArcSize=1;arcSize=12;strokeWidth=3;lucidId=bX46pygX1IwF;" parent="1" vertex="1">
                    <mxGeometry x="997" y="-225" width="120" height="90" as="geometry"/>
                </mxCell>
                <mxCell id="WDazMawdFwYF5kCfvkeo-8" value="" style="html=1;jettySize=18;whiteSpace=wrap;fontSize=13;strokeColor=#3a414a;strokeOpacity=100;strokeWidth=0.8;rounded=1;arcSize=12;edgeStyle=orthogonalEdgeStyle;startArrow=none;endArrow=block;endFill=1;exitX=0.5;exitY=1.017;exitPerimeter=0;entryX=0.492;entryY=0.006;entryPerimeter=0;lucidId=oX46W3XcybG5;" parent="1" source="WDazMawdFwYF5kCfvkeo-2" target="WDazMawdFwYF5kCfvkeo-7" edge="1">
                    <mxGeometry width="100" height="100" relative="1" as="geometry">
                        <Array as="points"/>
                    </mxGeometry>
                </mxCell>
                <mxCell id="WDazMawdFwYF5kCfvkeo-9" value="" style="html=1;jettySize=18;whiteSpace=wrap;fontSize=13.3;fontFamily=Liberation Serif;fontColor=#333333;fontStyle=1;strokeColor=#3a414a;strokeOpacity=100;strokeWidth=0.8;rounded=1;arcSize=12;edgeStyle=orthogonalEdgeStyle;startArrow=none;endArrow=block;endFill=1;exitX=0.5;exitY=0.994;exitPerimeter=0;entryX=0.5;entryY=-0.017;entryPerimeter=0;lucidId=EY46NvbOGxXJ;" parent="1" source="WDazMawdFwYF5kCfvkeo-7" target="WDazMawdFwYF5kCfvkeo-11" edge="1">
                    <mxGeometry width="100" height="100" relative="1" as="geometry">
                        <Array as="points"/>
                    </mxGeometry>
                </mxCell>
                <mxCell id="WDazMawdFwYF5kCfvkeo-10" value="いいえ" style="text;html=1;resizable=0;labelBackgroundColor=default;align=center;verticalAlign=middle;fontStyle=1;fontColor=#333333;fontSize=13.3;" parent="WDazMawdFwYF5kCfvkeo-9" vertex="1">
                    <mxGeometry relative="1" as="geometry"/>
                </mxCell>
                <mxCell id="WDazMawdFwYF5kCfvkeo-11" value="現在参加受付中&#10;参加者：N人" style="html=1;overflow=block;blockSpacing=1;whiteSpace=wrap;shape=document;boundedLbl=1;fontSize=16.7;fontFamily=Liberation Serif;spacing=3.8;strokeColor=#fe5900;strokeOpacity=100;rounded=1;absoluteArcSize=1;arcSize=12;strokeWidth=3;lucidId=EY46ze_tZcAt;" parent="1" vertex="1">
                    <mxGeometry x="997" y="-75" width="120" height="90" as="geometry"/>
                </mxCell>
                <mxCell id="WDazMawdFwYF5kCfvkeo-12" value="" style="html=1;jettySize=18;whiteSpace=wrap;fontSize=13.3;fontFamily=Liberation Serif;fontColor=#333333;fontStyle=1;strokeColor=#3a414a;strokeOpacity=100;strokeWidth=0.8;rounded=1;arcSize=12;edgeStyle=orthogonalEdgeStyle;startArrow=none;endArrow=block;endFill=1;exitX=0.988;exitY=0.5;exitPerimeter=0;entryX=-0.012;entryY=0.5;entryPerimeter=0;lucidId=JY46uP4CWbTt;" parent="1" source="WDazMawdFwYF5kCfvkeo-7" target="WDazMawdFwYF5kCfvkeo-14" edge="1">
                    <mxGeometry width="100" height="100" relative="1" as="geometry">
                        <Array as="points"/>
                    </mxGeometry>
                </mxCell>
                <mxCell id="WDazMawdFwYF5kCfvkeo-13" value="はい" style="text;html=1;resizable=0;labelBackgroundColor=default;align=center;verticalAlign=middle;fontStyle=1;fontColor=#333333;fontSize=13.3;" parent="WDazMawdFwYF5kCfvkeo-12" vertex="1">
                    <mxGeometry relative="1" as="geometry"/>
                </mxCell>
                <mxCell id="WDazMawdFwYF5kCfvkeo-14" value="すでにゲームが開始されています。&#10;終了するには/endを入力してください。" style="html=1;overflow=block;blockSpacing=1;whiteSpace=wrap;shape=document;boundedLbl=1;fontSize=16.7;fontFamily=Liberation Serif;spacing=3.8;strokeColor=#fe5900;strokeOpacity=100;rounded=1;absoluteArcSize=1;arcSize=12;strokeWidth=3;lucidId=JY46ptZgiAvo;" parent="1" vertex="1">
                    <mxGeometry x="1220" y="-256.5" width="120" height="153" as="geometry"/>
                </mxCell>
                <mxCell id="WDazMawdFwYF5kCfvkeo-15" value="" style="html=1;jettySize=18;whiteSpace=wrap;fontSize=13;strokeColor=#3a414a;strokeOpacity=100;strokeWidth=0.8;rounded=1;arcSize=12;edgeStyle=orthogonalEdgeStyle;startArrow=none;endArrow=block;endFill=1;exitX=0.5;exitY=0.933;exitPerimeter=0;entryX=0.5;entryY=0.006;entryPerimeter=0;lucidId=E646fNaUefCG;" parent="1" source="WDazMawdFwYF5kCfvkeo-11" target="WDazMawdFwYF5kCfvkeo-16" edge="1">
                    <mxGeometry width="100" height="100" relative="1" as="geometry">
                        <Array as="points"/>
                    </mxGeometry>
                </mxCell>
                <mxCell id="WDazMawdFwYF5kCfvkeo-16" value="参加コマンド" style="html=1;overflow=block;blockSpacing=1;whiteSpace=wrap;rhombus;fontSize=16.7;fontFamily=Liberation Serif;spacing=3.8;strokeColor=#fe5900;strokeOpacity=100;rounded=1;absoluteArcSize=1;arcSize=12;strokeWidth=3;lucidId=E646n8hSBBIF;" parent="1" vertex="1">
                    <mxGeometry x="997" y="60" width="120" height="90" as="geometry"/>
                </mxCell>
                <mxCell id="WDazMawdFwYF5kCfvkeo-17" value="" style="html=1;jettySize=18;whiteSpace=wrap;fontSize=13;strokeColor=#3a414a;strokeOpacity=100;strokeWidth=0.8;rounded=1;arcSize=12;edgeStyle=orthogonalEdgeStyle;startArrow=none;endArrow=block;endFill=1;exitX=0.5;exitY=0.994;exitPerimeter=0;entryX=0.5;entryY=0.1;entryPerimeter=0;lucidId=m7468-tLdPWE;" parent="1" source="WDazMawdFwYF5kCfvkeo-16" target="WDazMawdFwYF5kCfvkeo-18" edge="1">
                    <mxGeometry width="100" height="100" relative="1" as="geometry">
                        <Array as="points"/>
                    </mxGeometry>
                </mxCell>
                <mxCell id="WDazMawdFwYF5kCfvkeo-18" value="/join" style="html=1;overflow=block;blockSpacing=1;whiteSpace=wrap;shape=manualInput;size=15;fontSize=16.7;fontFamily=Liberation Serif;spacing=3.8;strokeColor=#fe5900;strokeOpacity=100;rounded=1;absoluteArcSize=1;arcSize=12;strokeWidth=3;lucidId=m746b8loxyOw;" parent="1" vertex="1">
                    <mxGeometry x="997" y="225" width="120" height="90" as="geometry"/>
                </mxCell>
                <mxCell id="WDazMawdFwYF5kCfvkeo-19" value="" style="html=1;jettySize=18;whiteSpace=wrap;fontSize=13;strokeColor=#3a414a;strokeOpacity=100;strokeWidth=0.8;rounded=1;arcSize=12;edgeStyle=orthogonalEdgeStyle;startArrow=none;endArrow=block;endFill=1;exitX=0.5;exitY=0.994;exitPerimeter=0;entryX=0.5;entryY=0.1;entryPerimeter=0;lucidId=u846R.E1gD-j;" parent="1" source="WDazMawdFwYF5kCfvkeo-16" target="WDazMawdFwYF5kCfvkeo-20" edge="1">
                    <mxGeometry width="100" height="100" relative="1" as="geometry">
                        <Array as="points"/>
                    </mxGeometry>
                </mxCell>
                <mxCell id="WDazMawdFwYF5kCfvkeo-20" value="/cancel" style="html=1;overflow=block;blockSpacing=1;whiteSpace=wrap;shape=manualInput;size=15;fontSize=16.7;fontFamily=Liberation Serif;spacing=3.8;strokeColor=#fe5900;strokeOpacity=100;rounded=1;absoluteArcSize=1;arcSize=12;strokeWidth=3;lucidId=u846xXxP.mW3;" parent="1" vertex="1">
                    <mxGeometry x="1140" y="225" width="120" height="90" as="geometry"/>
                </mxCell>
                <mxCell id="WDazMawdFwYF5kCfvkeo-21" value="/start" style="html=1;overflow=block;blockSpacing=1;whiteSpace=wrap;shape=manualInput;size=15;fontSize=16.7;fontFamily=Liberation Serif;spacing=3.8;strokeColor=#fe5900;strokeOpacity=100;rounded=1;absoluteArcSize=1;arcSize=12;strokeWidth=3;lucidId=O-46Bwxo8Go.;" parent="1" vertex="1">
                    <mxGeometry x="1297" y="225" width="120" height="90" as="geometry"/>
                </mxCell>
                <mxCell id="WDazMawdFwYF5kCfvkeo-22" value="" style="html=1;jettySize=18;whiteSpace=wrap;fontSize=13;strokeColor=#3a414a;strokeOpacity=100;strokeWidth=0.8;rounded=1;arcSize=12;edgeStyle=orthogonalEdgeStyle;startArrow=none;endArrow=block;endFill=1;exitX=0.5;exitY=0.994;exitPerimeter=0;entryX=0.5;entryY=0.1;entryPerimeter=0;lucidId=1-469GCzhSOn;" parent="1" source="WDazMawdFwYF5kCfvkeo-16" target="WDazMawdFwYF5kCfvkeo-21" edge="1">
                    <mxGeometry width="100" height="100" relative="1" as="geometry">
                        <Array as="points"/>
                    </mxGeometry>
                </mxCell>
                <mxCell id="WDazMawdFwYF5kCfvkeo-23" value="" style="html=1;jettySize=18;whiteSpace=wrap;fontSize=13;strokeColor=#3a414a;strokeOpacity=100;strokeWidth=0.8;rounded=1;arcSize=12;edgeStyle=orthogonalEdgeStyle;startArrow=none;endArrow=block;endFill=1;exitX=0.497;exitY=1.029;exitPerimeter=0;entryX=-0.013;entryY=0.506;entryPerimeter=0;lucidId=.-46UDgsffEk;entryDx=0;entryDy=0;exitDx=0;exitDy=0;" parent="1" source="WDazMawdFwYF5kCfvkeo-18" target="WDazMawdFwYF5kCfvkeo-11" edge="1">
                    <mxGeometry width="100" height="100" relative="1" as="geometry">
                        <Array as="points">
                            <mxPoint x="1057" y="360"/>
                            <mxPoint x="950" y="360"/>
                            <mxPoint x="950" y="-29"/>
                        </Array>
                        <mxPoint x="1041.44" y="336.5300000000002" as="sourcePoint"/>
                        <mxPoint x="980" y="-10" as="targetPoint"/>
                    </mxGeometry>
                </mxCell>
                <mxCell id="WDazMawdFwYF5kCfvkeo-24" value="" style="html=1;jettySize=18;whiteSpace=wrap;fontSize=13;strokeColor=#3a414a;strokeOpacity=100;strokeWidth=0.8;rounded=1;arcSize=12;edgeStyle=orthogonalEdgeStyle;startArrow=none;endArrow=block;endFill=1;exitX=0.5;exitY=1.017;exitPerimeter=0;entryX=-0.012;entryY=0.5;entryPerimeter=0;lucidId=c_46KuLggkMn;" parent="1" source="WDazMawdFwYF5kCfvkeo-20" target="WDazMawdFwYF5kCfvkeo-11" edge="1">
                    <mxGeometry width="100" height="100" relative="1" as="geometry">
                        <Array as="points">
                            <mxPoint x="1200" y="360"/>
                            <mxPoint x="950" y="360"/>
                            <mxPoint x="950" y="-30"/>
                        </Array>
                    </mxGeometry>
                </mxCell>
                <mxCell id="WDazMawdFwYF5kCfvkeo-25" value="" style="html=1;jettySize=18;whiteSpace=wrap;fontSize=13;strokeColor=#3a414a;strokeOpacity=100;strokeWidth=0.8;rounded=1;arcSize=12;edgeStyle=orthogonalEdgeStyle;startArrow=none;endArrow=block;endFill=1;exitX=0.5;exitY=1.017;exitPerimeter=0;entryX=1;entryY=0.5;entryPerimeter=0;lucidId=0_46st.Tg1OF;" parent="1" source="WDazMawdFwYF5kCfvkeo-21" target="WDazMawdFwYF5kCfvkeo-26" edge="1">
                    <mxGeometry width="100" height="100" relative="1" as="geometry">
                        <Array as="points">
                            <mxPoint x="1357" y="370"/>
                            <mxPoint x="1206" y="370"/>
                            <mxPoint x="1206" y="435"/>
                        </Array>
                    </mxGeometry>
                </mxCell>
                <mxCell id="WDazMawdFwYF5kCfvkeo-26" value="ゲーム開始" style="html=1;overflow=block;blockSpacing=1;whiteSpace=wrap;rounded=1;arcSize=50;fontSize=13;fontFamily=Lucid JP;fontColor=#ffffff;align=center;spacing=3.8;strokeOpacity=0;fillOpacity=100;fillColor=#ff741d;strokeWidth=0.8;lucidId=2_46xnNCwEn1;" parent="1" vertex="1">
                    <mxGeometry x="996" y="405" width="120" height="60" as="geometry"/>
                </mxCell>
                <mxCell id="WDazMawdFwYF5kCfvkeo-28" value="問題：〇〇" style="html=1;overflow=block;blockSpacing=1;whiteSpace=wrap;shape=document;boundedLbl=1;fontSize=16.7;fontFamily=Liberation Serif;align=center;spacing=3.8;strokeColor=#fe5900;strokeOpacity=100;fillOpacity=100;rounded=1;absoluteArcSize=1;arcSize=12;fillColor=default;strokeWidth=3;lucidId=qG56i8TFN4ua;" parent="1" vertex="1">
                    <mxGeometry x="996" y="510" width="120" height="90" as="geometry"/>
                </mxCell>
                <mxCell id="WDazMawdFwYF5kCfvkeo-29" value="" style="html=1;jettySize=18;whiteSpace=wrap;fontSize=13;strokeColor=#3a414a;strokeOpacity=100;strokeWidth=0.8;rounded=1;arcSize=12;edgeStyle=orthogonalEdgeStyle;startArrow=none;endArrow=block;endFill=1;exitX=0.5;exitY=1;exitPerimeter=0;entryX=0.5;entryY=-0.017;entryPerimeter=0;lucidId=vG56Q~eC3JCq;" parent="1" source="WDazMawdFwYF5kCfvkeo-26" target="WDazMawdFwYF5kCfvkeo-28" edge="1">
                    <mxGeometry width="100" height="100" relative="1" as="geometry">
                        <Array as="points"/>
                    </mxGeometry>
                </mxCell>
                <mxCell id="WDazMawdFwYF5kCfvkeo-30" value="" style="html=1;jettySize=18;whiteSpace=wrap;fontSize=13;strokeColor=#3a414a;strokeOpacity=100;strokeWidth=0.8;rounded=1;arcSize=12;edgeStyle=orthogonalEdgeStyle;startArrow=none;endArrow=block;endFill=1;exitX=0.5;exitY=0.933;exitPerimeter=0;entryX=0.5;entryY=0.006;entryPerimeter=0;lucidId=aa76nVpj2v9U;" parent="1" source="WDazMawdFwYF5kCfvkeo-28" target="WDazMawdFwYF5kCfvkeo-31" edge="1">
                    <mxGeometry width="100" height="100" relative="1" as="geometry">
                        <Array as="points"/>
                    </mxGeometry>
                </mxCell>
                <mxCell id="WDazMawdFwYF5kCfvkeo-31" value="入力待ち" style="html=1;overflow=block;blockSpacing=1;whiteSpace=wrap;rhombus;fontSize=16.7;fontFamily=Liberation Serif;align=center;spacing=3.8;strokeColor=#fe5900;strokeOpacity=100;fillOpacity=100;rounded=1;absoluteArcSize=1;arcSize=12;fillColor=default;strokeWidth=3;lucidId=aa76UMzdjxra;" parent="1" vertex="1">
                    <mxGeometry x="996" y="660" width="120" height="90" as="geometry"/>
                </mxCell>
                <mxCell id="WDazMawdFwYF5kCfvkeo-32" value="" style="html=1;jettySize=18;whiteSpace=wrap;fontSize=13;strokeColor=#3a414a;strokeOpacity=100;strokeWidth=0.8;rounded=1;arcSize=12;edgeStyle=orthogonalEdgeStyle;startArrow=none;endArrow=block;endFill=1;exitX=0.5;exitY=0.994;exitPerimeter=0;entryX=0.5;entryY=0.1;entryPerimeter=0;lucidId=Zhj7ui2WvuuY;" parent="1" source="WDazMawdFwYF5kCfvkeo-31" target="WDazMawdFwYF5kCfvkeo-33" edge="1">
                    <mxGeometry width="100" height="100" relative="1" as="geometry">
                        <Array as="points"/>
                    </mxGeometry>
                </mxCell>
                <mxCell id="f3MCCMU7Drk_aGL3dUXo-3" value="" style="edgeStyle=orthogonalEdgeStyle;rounded=0;orthogonalLoop=1;jettySize=auto;html=1;" parent="1" source="WDazMawdFwYF5kCfvkeo-33" edge="1">
                    <mxGeometry relative="1" as="geometry">
                        <mxPoint x="1056" y="984.9999999999995" as="targetPoint"/>
                    </mxGeometry>
                </mxCell>
                <mxCell id="WDazMawdFwYF5kCfvkeo-33" value="質問" style="html=1;overflow=block;blockSpacing=1;whiteSpace=wrap;shape=manualInput;size=15;fontSize=16.7;fontFamily=Liberation Serif;align=center;spacing=3.8;strokeColor=#fe5900;strokeOpacity=100;fillOpacity=100;rounded=1;absoluteArcSize=1;arcSize=12;fillColor=default;strokeWidth=3;lucidId=Zhj7LFXI9Fl9;" parent="1" vertex="1">
                    <mxGeometry x="996" y="810" width="120" height="90" as="geometry"/>
                </mxCell>
                <mxCell id="WDazMawdFwYF5kCfvkeo-35" value="" style="html=1;jettySize=18;whiteSpace=wrap;fontSize=13;strokeColor=#3a414a;strokeOpacity=100;strokeWidth=0.8;rounded=1;arcSize=12;edgeStyle=orthogonalEdgeStyle;startArrow=none;endArrow=block;endFill=1;exitX=0.5;exitY=0.994;exitPerimeter=0;entryX=0.5;entryY=0.1;entryPerimeter=0;lucidId=Qij7IqYSOQw6;" parent="1" source="WDazMawdFwYF5kCfvkeo-31" edge="1">
                    <mxGeometry width="100" height="100" relative="1" as="geometry">
                        <Array as="points"/>
                        <mxPoint x="1259.9999999999998" y="819" as="targetPoint"/>
                    </mxGeometry>
                </mxCell>
                <mxCell id="WDazMawdFwYF5kCfvkeo-36" value="" style="text;html=1;resizable=0;labelBackgroundColor=default;align=center;verticalAlign=middle;fontSize=13;" parent="WDazMawdFwYF5kCfvkeo-35" vertex="1">
                    <mxGeometry x="-0.7458372251189623" relative="1" as="geometry"/>
                </mxCell>
                <mxCell id="f3MCCMU7Drk_aGL3dUXo-13" value="" style="edgeStyle=orthogonalEdgeStyle;rounded=0;orthogonalLoop=1;jettySize=auto;html=1;" parent="1" source="f3MCCMU7Drk_aGL3dUXo-1" target="f3MCCMU7Drk_aGL3dUXo-12" edge="1">
                    <mxGeometry relative="1" as="geometry"/>
                </mxCell>
                <mxCell id="f3MCCMU7Drk_aGL3dUXo-1" value="回答" style="html=1;overflow=block;blockSpacing=1;whiteSpace=wrap;shape=manualInput;size=15;fontSize=16.7;fontFamily=Liberation Serif;align=center;spacing=3.8;strokeColor=#fe5900;strokeOpacity=100;fillOpacity=100;rounded=1;absoluteArcSize=1;arcSize=12;fillColor=default;strokeWidth=3;lucidId=Zhj7LFXI9Fl9;" parent="1" vertex="1">
                    <mxGeometry x="1200" y="810" width="120" height="90" as="geometry"/>
                </mxCell>
                <mxCell id="f3MCCMU7Drk_aGL3dUXo-8" value="Yes / No" style="html=1;overflow=block;blockSpacing=1;whiteSpace=wrap;shape=document;boundedLbl=1;fontSize=16.7;fontFamily=Liberation Serif;align=center;spacing=3.8;strokeColor=#fe5900;strokeOpacity=100;fillOpacity=100;rounded=1;absoluteArcSize=1;arcSize=12;fillColor=default;strokeWidth=3;lucidId=qG56i8TFN4ua;" parent="1" vertex="1">
                    <mxGeometry x="996" y="980.0000000000005" width="120" height="90" as="geometry"/>
                </mxCell>
                <mxCell id="f3MCCMU7Drk_aGL3dUXo-11" value="" style="edgeStyle=segmentEdgeStyle;endArrow=classic;html=1;curved=0;rounded=0;endSize=8;startSize=8;sourcePerimeterSpacing=0;targetPerimeterSpacing=0;exitX=0.495;exitY=0.901;exitDx=0;exitDy=0;exitPerimeter=0;entryX=0.025;entryY=0.522;entryDx=0;entryDy=0;entryPerimeter=0;" parent="1" source="f3MCCMU7Drk_aGL3dUXo-8" target="WDazMawdFwYF5kCfvkeo-31" edge="1">
                    <mxGeometry width="100" relative="1" as="geometry">
                        <mxPoint x="1010" y="1110" as="sourcePoint"/>
                        <mxPoint x="920" y="700" as="targetPoint"/>
                        <Array as="points">
                            <mxPoint x="1055" y="1150"/>
                            <mxPoint x="940" y="1150"/>
                            <mxPoint x="940" y="707"/>
                        </Array>
                    </mxGeometry>
                </mxCell>
                <mxCell id="f3MCCMU7Drk_aGL3dUXo-15" value="" style="edgeStyle=orthogonalEdgeStyle;rounded=0;orthogonalLoop=1;jettySize=auto;html=1;" parent="1" source="f3MCCMU7Drk_aGL3dUXo-12" edge="1">
                    <mxGeometry relative="1" as="geometry">
                        <mxPoint x="1369.9999999999998" y="1024.9999999999995" as="targetPoint"/>
                    </mxGeometry>
                </mxCell>
                <mxCell id="f3MCCMU7Drk_aGL3dUXo-12" value="正誤" style="rhombus;whiteSpace=wrap;html=1;fontSize=16.7;fontFamily=Liberation Serif;fillColor=default;strokeColor=#fe5900;spacing=3.8;rounded=1;arcSize=12;strokeWidth=3;" parent="1" vertex="1">
                    <mxGeometry x="1220" y="985" width="80" height="80" as="geometry"/>
                </mxCell>
                <mxCell id="f3MCCMU7Drk_aGL3dUXo-16" value="正解" style="text;html=1;align=center;verticalAlign=middle;resizable=0;points=[];autosize=1;strokeColor=none;fillColor=none;" parent="1" vertex="1">
                    <mxGeometry x="1300" y="1000" width="50" height="30" as="geometry"/>
                </mxCell>
                <mxCell id="f3MCCMU7Drk_aGL3dUXo-19" value="" style="edgeStyle=orthogonalEdgeStyle;rounded=0;orthogonalLoop=1;jettySize=auto;html=1;" parent="1" source="f3MCCMU7Drk_aGL3dUXo-17" target="f3MCCMU7Drk_aGL3dUXo-18" edge="1">
                    <mxGeometry relative="1" as="geometry"/>
                </mxCell>
                <mxCell id="f3MCCMU7Drk_aGL3dUXo-17" value="プレイヤー〇〇さん&lt;br&gt;正解です&lt;div&gt;&lt;br/&gt;&lt;/div&gt;" style="html=1;overflow=block;blockSpacing=1;whiteSpace=wrap;shape=manualInput;size=15;fontSize=16.7;fontFamily=Liberation Serif;align=center;spacing=3.8;strokeColor=#fe5900;strokeOpacity=100;fillOpacity=100;rounded=1;absoluteArcSize=1;arcSize=12;fillColor=default;strokeWidth=3;lucidId=Zhj7LFXI9Fl9;" parent="1" vertex="1">
                    <mxGeometry x="1370" y="980" width="160" height="110" as="geometry"/>
                </mxCell>
                <mxCell id="f3MCCMU7Drk_aGL3dUXo-22" value="" style="edgeStyle=orthogonalEdgeStyle;rounded=0;orthogonalLoop=1;jettySize=auto;html=1;" parent="1" source="f3MCCMU7Drk_aGL3dUXo-18" edge="1">
                    <mxGeometry relative="1" as="geometry">
                        <mxPoint x="1450" y="1334.9999999999995" as="targetPoint"/>
                    </mxGeometry>
                </mxCell>
                <mxCell id="f3MCCMU7Drk_aGL3dUXo-27" value="" style="edgeStyle=orthogonalEdgeStyle;rounded=0;orthogonalLoop=1;jettySize=auto;html=1;entryX=0.005;entryY=0.463;entryDx=0;entryDy=0;entryPerimeter=0;" parent="1" source="f3MCCMU7Drk_aGL3dUXo-23" target="WDazMawdFwYF5kCfvkeo-28" edge="1">
                    <mxGeometry relative="1" as="geometry">
                        <mxPoint x="1450" y="1480" as="targetPoint"/>
                        <Array as="points">
                            <mxPoint x="900" y="1370"/>
                            <mxPoint x="900" y="552"/>
                        </Array>
                    </mxGeometry>
                </mxCell>
                <mxCell id="f3MCCMU7Drk_aGL3dUXo-23" value="続ける" style="rounded=1;whiteSpace=wrap;html=1;strokeColor=#fe5900;strokeWidth=3;align=center;verticalAlign=middle;spacing=3.8;arcSize=12;fontFamily=Liberation Serif;fontSize=16.7;fontColor=default;fillColor=default;" parent="1" vertex="1">
                    <mxGeometry x="1390" y="1340" width="120" height="60" as="geometry"/>
                </mxCell>
                <mxCell id="f3MCCMU7Drk_aGL3dUXo-18" value="ボタン入力まち" style="rhombus;whiteSpace=wrap;html=1;fontSize=16.7;fontFamily=Liberation Serif;fillColor=default;strokeColor=#fe5900;spacing=3.8;rounded=1;arcSize=12;strokeWidth=3;" parent="1" vertex="1">
                    <mxGeometry x="1375" y="1150" width="150" height="105" as="geometry"/>
                </mxCell>
                <mxCell id="f3MCCMU7Drk_aGL3dUXo-29" value="" style="edgeStyle=orthogonalEdgeStyle;rounded=0;orthogonalLoop=1;jettySize=auto;html=1;entryX=0.515;entryY=-0.023;entryDx=0;entryDy=0;entryPerimeter=0;" parent="1" source="f3MCCMU7Drk_aGL3dUXo-24" target="f3MCCMU7Drk_aGL3dUXo-28" edge="1">
                    <mxGeometry relative="1" as="geometry">
                        <Array as="points">
                            <mxPoint x="1600" y="1510"/>
                            <mxPoint x="1058" y="1510"/>
                        </Array>
                    </mxGeometry>
                </mxCell>
                <mxCell id="f3MCCMU7Drk_aGL3dUXo-24" value="終了する" style="rounded=1;whiteSpace=wrap;html=1;strokeColor=#fe5900;strokeWidth=3;align=center;verticalAlign=middle;spacing=3.8;arcSize=12;fontFamily=Liberation Serif;fontSize=16.7;fontColor=default;fillColor=default;" parent="1" vertex="1">
                    <mxGeometry x="1540" y="1340" width="120" height="60" as="geometry"/>
                </mxCell>
                <mxCell id="f3MCCMU7Drk_aGL3dUXo-25" value="" style="edgeStyle=orthogonalEdgeStyle;rounded=0;orthogonalLoop=1;jettySize=auto;html=1;exitX=0.497;exitY=0.969;exitDx=0;exitDy=0;exitPerimeter=0;entryX=0.491;entryY=0.019;entryDx=0;entryDy=0;entryPerimeter=0;" parent="1" source="f3MCCMU7Drk_aGL3dUXo-18" target="f3MCCMU7Drk_aGL3dUXo-24" edge="1">
                    <mxGeometry relative="1" as="geometry">
                        <mxPoint x="1460" y="1265" as="sourcePoint"/>
                        <mxPoint x="1600" y="1330" as="targetPoint"/>
                    </mxGeometry>
                </mxCell>
                <mxCell id="f3MCCMU7Drk_aGL3dUXo-31" value="" style="edgeStyle=orthogonalEdgeStyle;rounded=0;orthogonalLoop=1;jettySize=auto;html=1;" parent="1" source="f3MCCMU7Drk_aGL3dUXo-28" edge="1">
                    <mxGeometry relative="1" as="geometry">
                        <mxPoint x="1056" y="1873" as="targetPoint"/>
                    </mxGeometry>
                </mxCell>
                <mxCell id="f3MCCMU7Drk_aGL3dUXo-28" value="ゲーム終了です。&lt;br&gt;総問題数：N&lt;br&gt;１位：〇〇&lt;br&gt;２位：△△&lt;br&gt;３位：■■" style="shape=document;whiteSpace=wrap;html=1;boundedLbl=1;fontSize=16.7;fontFamily=Liberation Serif;fillColor=default;strokeColor=#fe5900;rounded=1;strokeWidth=3;spacing=3.8;arcSize=12;" parent="1" vertex="1">
                    <mxGeometry x="954" y="1593" width="204" height="160" as="geometry"/>
                </mxCell>
                <mxCell id="f3MCCMU7Drk_aGL3dUXo-33" value="ゲーム終了" style="html=1;overflow=block;blockSpacing=1;whiteSpace=wrap;rounded=1;arcSize=50;fontSize=13;fontFamily=Lucid JP;fontColor=#ffffff;align=center;spacing=3.8;strokeOpacity=0;fillOpacity=100;fillColor=#ff741d;strokeWidth=0.8;lucidId=2_46xnNCwEn1;" parent="1" vertex="1">
                    <mxGeometry x="997" y="1870.0000000000005" width="120" height="60" as="geometry"/>
                </mxCell>
            </root>
        </mxGraphModel>
    </diagram>
</mxfile>